<svg xmlns="http://www.w3.org/2000/svg" width="103.456" height="30" viewBox="0 0 103.456 30"><defs><style>.a{fill:#e61c24;}.a,.b{fill-rule:evenodd;}</style></defs><path class="a" d="M256.8,32.891l5.643-9.836h22.853l5.757,9.836H279.706L268.2,13.271l5.7-10,5.756,10-11.4,19.62Z" transform="translate(-256.797 -3.266)"/><path d="M313.506,13.521h1.938c.071-1.812-1.407-3.045-3.551-3.064-2.45-.02-3.632,1.031-3.8,2.619a2.416,2.416,0,0,0,1.808,2.757c1.295.44,3.114.477,3.773,1.171a1.353,1.353,0,0,1-.14,1.6,1.88,1.88,0,0,1-1.331.5,2.426,2.426,0,0,1-1.882-.584,1.459,1.459,0,0,1-.419-1.023H307.9a3.464,3.464,0,0,0,1.405,2.576,4.634,4.634,0,0,0,2.449.692,4.252,4.252,0,0,0,3.088-.9,3.171,3.171,0,0,0,.687-3.3,3.012,3.012,0,0,0-2.345-1.7,11.475,11.475,0,0,1-2.545-.782c-.456-.184-.492-.536-.509-.957-.023-.553.69-1.159,1.7-1.159,1.273.023,1.722.732,1.684,1.554" transform="translate(-251.422 -2.509)"/><path d="M293.662,20.5h2.046l2.081-7.874v7.888l1.935,0V10.512H296.61l-1.919,7.572-2.03-7.572h-2.995V20.5h1.912l0-7.874Z" transform="translate(-253.339 -2.503)"/><rect width="1.995" height="9.99" transform="translate(47.181 7.997)"/><path d="M308.6,10.535h-6.941v1.716h2.427v8.273H306.1V12.251h2.5Z" transform="translate(-252.078 -2.501)"/><path d="M323.451,10.519h-2.062V17.44c0,.62-.295,1.605-1.922,1.605-1.66,0-1.858-.985-1.88-1.605V10.519h-2.062V17.4a3.449,3.449,0,0,0,2.062,3.087,5.411,5.411,0,0,0,1.939.326,5.166,5.166,0,0,0,2.045-.4,3.115,3.115,0,0,0,1.881-3.011Z" transform="translate(-250.62 -2.502)"/><rect width="2.062" height="9.988" transform="translate(81.733 8.016)"/><path d="M340.617,10.52v9.988h1.952V16.123h3.92v4.385h2.083V10.52h-2.083v3.76h-3.92V10.517Z" transform="translate(-247.98 -2.503)"/><rect width="2.064" height="9.989" transform="translate(101.392 8.017)"/><path d="M297.1,20.979h-7.3V31.06h7.539V29.328h-5.544v-2.6h4.831V25h-4.831V22.711h5.3Z" transform="translate(-253.326 -1.4)"/><path d="M299.138,20.979h-2.083V31.06h6.894V29.328h-4.811Z" transform="translate(-252.563 -1.4)"/><path d="M310.8,20.979h-7.228V31.06H311V29.328h-5.383v-2.6h4.7V25h-4.7V22.711H310.8Z" transform="translate(-251.877 -1.4)"/><rect width="2.082" height="10.081" transform="translate(83.261 19.58)"/><path d="M324.994,20.969l-7.024.018.008,1.784,2.5-.023,0,8.363h2.036l-.005-8.341h2.465Z" transform="translate(-250.363 -1.401)"/><path class="b" d="M325.24,18.79V16.215h2.795a1.122,1.122,0,0,1,1.056,1.237c0,1.3-.819,1.338-1.439,1.338Zm-.046-4.291.017-2.1h2.466c.72.022,1.11.278,1.089,1.041-.025.8-.357,1.064-1.233,1.064Zm-2-3.98v9.989h4.492a5.135,5.135,0,0,0,2.476-.613,2.461,2.461,0,0,0,.994-2.183,2.77,2.77,0,0,0-1.415-2.371,2.508,2.508,0,0,0,1.111-2.209c-.013-.83-.321-2.619-3.549-2.613Z" transform="translate(-249.813 -2.502)"/><path d="M338.612,13.609h1.938c.066-1.81-1.407-3.043-3.555-3.061-2.448-.022-3.631,1.026-3.792,2.615a2.419,2.419,0,0,0,1.808,2.76c1.294.439,3.115.476,3.774,1.171a1.357,1.357,0,0,1-.141,1.6,1.885,1.885,0,0,1-1.334.5,2.416,2.416,0,0,1-1.879-.581,1.451,1.451,0,0,1-.419-1.026H333a3.468,3.468,0,0,0,1.407,2.576,4.671,4.671,0,0,0,2.448.694,4.266,4.266,0,0,0,3.089-.9,3.171,3.171,0,0,0,.684-3.3,3.006,3.006,0,0,0-2.339-1.7,11.308,11.308,0,0,1-2.547-.781c-.456-.183-.493-.538-.51-.956-.022-.553.692-1.159,1.7-1.159,1.274.022,1.722.732,1.686,1.553" transform="translate(-248.778 -2.499)"/><path class="b" d="M326.651,22.8l2.557-.022a1.217,1.217,0,0,1,1.3,1.285,1.337,1.337,0,0,1-1.452,1.319h-2.4Zm5.93,8.275a1.507,1.507,0,0,1-.409-1.17c-.018-.517-.064-1.523-.121-1.948a2.618,2.618,0,0,0-1.147-1.568,3.035,3.035,0,0,0,1.489-1.849,2.692,2.692,0,0,0-.06-1.768,2.564,2.564,0,0,0-2.165-1.781h-5.6V31.073h2.08V27.091h2.03c1.242.075,1.668,1.423,1.688,3.03a2.377,2.377,0,0,0,.123.951Z" transform="translate(-249.669 -1.399)"/><path d="M342.836,27.978H340.85a1.889,1.889,0,0,1-2.046,1.645,2.149,2.149,0,0,1-.828-.166,2.619,2.619,0,0,1-1.288-1.4,4.8,4.8,0,0,1-.316-2.118,5.855,5.855,0,0,1,.316-1.734,2.354,2.354,0,0,1,2.006-1.6,2.213,2.213,0,0,1,2.331,1.825l1.913-.019A4.142,4.142,0,0,0,341.6,21.79a4.325,4.325,0,0,0-2.63-.941,4.219,4.219,0,0,0-4.386,3.355,7.2,7.2,0,0,0-.239,1.935,8.019,8.019,0,0,0,.2,1.771,4.415,4.415,0,0,0,7.258,2.38,3.3,3.3,0,0,0,1.031-2.312" transform="translate(-248.637 -1.414)"/><path d="M318.695,27.946h-1.986c.06.851-.983,1.685-2.044,1.647a2.466,2.466,0,0,1-.83-.167,2.615,2.615,0,0,1-1.286-1.4,4.736,4.736,0,0,1-.316-2.12,5.694,5.694,0,0,1,.316-1.731,2.347,2.347,0,0,1,2.005-1.6,2.214,2.214,0,0,1,2.331,1.824l1.912-.015a4.128,4.128,0,0,0-1.339-2.62,4.308,4.308,0,0,0-2.628-.938,4.215,4.215,0,0,0-4.387,3.353,7.231,7.231,0,0,0-.239,1.934,7.959,7.959,0,0,0,.2,1.77,4.413,4.413,0,0,0,7.257,2.381,3.288,3.288,0,0,0,1.031-2.312" transform="translate(-251.179 -1.417)"/></svg>