<svg xmlns="http://www.w3.org/2000/svg" width="219" height="64" viewBox="0 0 219 64">
  <g id="Group_580" data-name="Group 580" transform="translate(-592.116 -7.923)">
    <path id="Path_2162" data-name="Path 2162" d="M592.116,71.122l11.949-20.983h48.4l12.191,20.983H640.631L616.255,29.266,628.325,7.923l12.189,21.343L616.376,71.122Z" fill="#e61c24" fill-rule="evenodd"/>
    <path id="Path_2163" data-name="Path 2163" d="M723.539,31.416h4.1c.149-3.866-2.979-6.5-7.52-6.54-5.187-.043-7.69,2.2-8.038,5.589a5.157,5.157,0,0,0,3.831,5.886c2.742.937,6.595,1.018,7.99,2.5.791.846.4,2.776-.3,3.422a3.976,3.976,0,0,1-2.82,1.058,5.105,5.105,0,0,1-3.985-1.247,3.122,3.122,0,0,1-.887-2.184h-4.255a7.409,7.409,0,0,0,2.974,5.5,9.771,9.771,0,0,0,5.187,1.477c2.358,0,4.483-.138,6.539-1.92a6.8,6.8,0,0,0,1.455-7.046c-.656-1.937-2.764-3.16-4.966-3.624-.809-.177-4.89-1.128-5.39-1.67-.965-.393-1.041-1.143-1.079-2.042-.048-1.181,1.463-2.472,3.593-2.472,2.7.049,3.649,1.562,3.567,3.317"/>
    <path id="Path_2164" data-name="Path 2164" d="M677.474,46.328h4.334l4.406-16.8V46.358l4.1.008V25.006h-6.6l-4.064,16.161-4.3-16.161h-6.342V46.328h4.048l.01-16.8Z"/>
    <rect id="Rectangle_257" data-name="Rectangle 257" width="4.225" height="21.321" transform="translate(691.99 24.98)"/>
    <path id="Path_2165" data-name="Path 2165" d="M711.773,25.06h-14.7v3.663h5.14V46.378h4.26V28.722h5.3Z"/>
    <path id="Path_2166" data-name="Path 2166" d="M746.291,25.022h-4.369V39.794c0,1.322-.624,3.425-4.07,3.425-3.515,0-3.934-2.1-3.98-3.425V25.022H729.5V39.715c0,2.1.89,4.636,4.369,6.587a11.387,11.387,0,0,0,4.1.7,10.882,10.882,0,0,0,4.33-.855,6.656,6.656,0,0,0,3.984-6.427Z"/>
    <rect id="Rectangle_258" data-name="Rectangle 258" width="4.366" height="21.316" transform="translate(765.131 25.022)"/>
    <path id="Path_2167" data-name="Path 2167" d="M788.206,25.023V46.339l4.134,0V36.982h8.3V46.34h4.412V25.023H800.64v8.025h-8.3v-8.03Z"/>
    <rect id="Rectangle_259" data-name="Rectangle 259" width="4.371" height="21.317" transform="translate(806.745 25.022)"/>
    <path id="Path_2168" data-name="Path 2168" d="M684.774,49.683H669.317V71.2h15.966V67.5h-11.74v-5.55h10.23v-3.7h-10.23V53.379h11.23Z"/>
    <path id="Path_2169" data-name="Path 2169" d="M690.709,49.683H686.3V71.2h14.6V67.5H690.709Z"/>
    <path id="Path_2170" data-name="Path 2170" d="M716.86,49.683H701.554V71.2h15.709V67.5h-11.4v-5.55h9.958v-3.7h-9.958V53.379h11Z"/>
    <rect id="Rectangle_260" data-name="Rectangle 260" width="4.409" height="21.514" transform="translate(768.35 49.684)"/>
    <path id="Path_2171" data-name="Path 2171" d="M750.1,49.66l-14.875.039.018,3.808,5.3-.048.008,17.848h4.312l-.011-17.8h5.22Z"/>
    <path id="Path_2172" data-name="Path 2172" d="M751.78,42.674v-5.5H757.7a2.388,2.388,0,0,1,2.237,2.643c0,2.773-1.734,2.854-3.048,2.854Zm-.1-9.158.035-4.491h5.221c1.526.047,2.352.593,2.307,2.222-.053,1.712-.756,2.269-2.61,2.269Zm-4.232-8.494V46.339h9.513a10.806,10.806,0,0,0,5.241-1.307,5.273,5.273,0,0,0,2.107-4.658,5.921,5.921,0,0,0-3-5.061,5.365,5.365,0,0,0,2.353-4.715c-.028-1.77-.681-5.591-7.518-5.576Z" fill-rule="evenodd"/>
    <path id="Path_2173" data-name="Path 2173" d="M782.27,31.625h4.1c.141-3.863-2.979-6.5-7.527-6.535-5.185-.046-7.689,2.192-8.033,5.58a5.162,5.162,0,0,0,3.83,5.89c2.74.937,6.6,1.018,7.993,2.5.786.848.389,2.768-.3,3.416a3.968,3.968,0,0,1-2.825,1.059,5.094,5.094,0,0,1-3.98-1.24,3.108,3.108,0,0,1-.887-2.191h-4.261a7.413,7.413,0,0,0,2.98,5.5,9.844,9.844,0,0,0,5.183,1.482c2.361,0,4.489-.145,6.542-1.921a6.806,6.806,0,0,0,1.449-7.045c-.646-1.938-2.759-3.159-4.954-3.63-.819-.174-4.894-1.122-5.4-1.668-.965-.391-1.042-1.147-1.081-2.039-.046-1.181,1.464-2.472,3.593-2.472,2.7.047,3.649,1.564,3.57,3.316"/>
    <path id="Path_2174" data-name="Path 2174" d="M755.072,53.566l5.415-.048a2.588,2.588,0,0,1,2.746,2.743,2.837,2.837,0,0,1-3.075,2.814h-5.086Zm12.556,17.661a3.233,3.233,0,0,1-.865-2.5c-.038-1.1-.136-3.25-.257-4.156a5.583,5.583,0,0,0-2.428-3.345,6.469,6.469,0,0,0,3.153-3.946,5.779,5.779,0,0,0-.127-3.773,5.433,5.433,0,0,0-4.584-3.8H750.658V71.227h4.406v-8.5h4.3c2.631.161,3.533,3.038,3.576,6.469a5.124,5.124,0,0,0,.26,2.029Z" fill-rule="evenodd"/>
    <path id="Path_2175" data-name="Path 2175" d="M791.515,64.59h-4.206c.068,1.835-1.946,3.522-4.334,3.512a4.51,4.51,0,0,1-1.755-.356,5.57,5.57,0,0,1-2.727-2.988,10.316,10.316,0,0,1-.67-4.521,12.561,12.561,0,0,1,.67-3.7,4.987,4.987,0,0,1,4.247-3.42,4.7,4.7,0,0,1,4.938,3.893l4.05-.04a8.859,8.859,0,0,0-2.832-5.585,9.118,9.118,0,0,0-5.569-2.008c-5.541,0-8.075,3.15-9.289,7.16a15.485,15.485,0,0,0-.505,4.13,17.228,17.228,0,0,0,.429,3.78c1.13,4.561,4.451,7.655,9.175,7.468a8.81,8.81,0,0,0,6.193-2.39,7.073,7.073,0,0,0,2.185-4.935"/>
    <path id="Path_2176" data-name="Path 2176" d="M735.039,64.518l-4.207,0c.127,1.816-2.082,3.6-4.327,3.516a5.159,5.159,0,0,1-1.757-.356,5.563,5.563,0,0,1-2.724-2.99,10.222,10.222,0,0,1-.67-4.526,12.257,12.257,0,0,1,.67-3.694,4.981,4.981,0,0,1,4.246-3.422,4.7,4.7,0,0,1,4.936,3.894l4.051-.034a8.839,8.839,0,0,0-2.835-5.591,9.084,9.084,0,0,0-5.567-2c-5.541,0-8.078,3.139-9.29,7.155a15.576,15.576,0,0,0-.505,4.129,17.061,17.061,0,0,0,.428,3.777c1.135,4.563,4.449,7.655,9.17,7.473a8.863,8.863,0,0,0,6.2-2.392,7.047,7.047,0,0,0,2.183-4.935"/>
  </g>
</svg>
